# xmcd
# 
# Track frame offsets:
#     180
#     21873
#     42888
#     60925
#     83103
#     98628
#     121065
#     143480
#     156545
#     173460
# 
# Disc length: 2665
# 
# Revision: 19
# Processed by: cddbd v1.5.2PL0 Copyright (c) Steve Scherf et al.
# Submitted via: fre:ac v1.0.31
# 
DISCID=6d0a670a
DTITLE=Queen - A Day At The Races
DYEAR=1976
DGENRE=Rock
TTITLE0=Tie Your Mother Down
TTITLE1=You Take My Breath Away
TTITLE2=Long Away
TTITLE3=The Millionaire Waltz
TTITLE4=You And I
TTITLE5=Somebody To Love
TTITLE6=White Man
TTITLE7=Good Old-Fashioned Lover Boy
TTITLE8=Drowse
TTITLE9=Teo Torriatte (Let Us Cling Together)
EXTD=YEAR: 1976
EXTT0=
EXTT1=
EXTT2=
EXTT3=
EXTT4=
EXTT5=
EXTT6=
EXTT7=
EXTT8=
EXTT9=
PLAYORDER=
